<?xml version="1.0" standalone="no"?>
<!DOCTYPE svg PUBLIC "-//W3C//DTD SVG 20010904//EN"
 "http://www.w3.org/TR/2001/REC-SVG-20010904/DTD/svg10.dtd">
<svg version="1.0" xmlns="http://www.w3.org/2000/svg"
 width="600.000000pt" height="382.000000pt" viewBox="0 0 600.000000 382.000000"
 preserveAspectRatio="xMidYMid meet">
<metadata>
Created by potrace 1.16, written by Peter Selinger 2001-2019
</metadata>
<g transform="translate(0.000000,382.000000) scale(0.100000,-0.100000)"
fill="#000000" stroke="none">
<path d="M2955 3536 c-37 -17 -70 -52 -84 -89 -7 -18 -11 -138 -11 -323 l0
-294 573 0 c621 0 625 -1 728 -56 114 -62 217 -203 254 -349 19 -77 19 -194
-1 -264 -18 -64 -43 -104 -51 -82 -17 44 -94 119 -157 151 l-69 35 -426 5
c-413 5 -428 6 -491 28 -182 65 -286 187 -345 407 -13 48 -14 43 -14 -110 l-1
-159 215 -216 214 -215 8 35 9 35 253 3 c209 2 252 0 248 -11 -3 -7 -28 -96
-57 -198 -28 -101 -58 -206 -65 -232 -8 -26 -11 -45 -6 -43 4 3 41 -28 81 -69
l74 -74 -105 -4 c-57 -1 14 -4 159 -5 291 -2 359 6 445 56 55 32 138 110 168
158 12 20 32 37 47 40 101 23 226 56 276 74 90 31 89 32 81 -52 -16 -175 -72
-353 -145 -465 -22 -34 -77 -96 -122 -138 -63 -60 -102 -87 -182 -125 -55 -27
-123 -54 -149 -61 -26 -6 -46 -14 -43 -16 2 -2 23 1 46 7 31 8 45 8 55 0 10
-8 22 -7 47 6 18 9 42 18 53 20 19 2 1353 742 1384 767 24 20 51 90 51 135 0
51 -19 99 -52 129 -21 20 -752 433 -765 433 -3 0 -40 -32 -82 -72 -145 -135
-333 -271 -539 -388 -97 -55 -129 -61 -71 -13 47 39 216 190 327 292 52 47
127 124 168 170 l74 84 -193 106 c-105 59 -489 273 -852 476 -363 203 -704
393 -757 423 -105 58 -156 70 -203 48z m1675 -956 c80 -80 160 -195 160 -230
0 -22 -125 -144 -139 -136 -6 4 -11 24 -11 45 0 102 -71 286 -155 399 -25 34
-45 64 -45 67 0 17 119 -73 190 -145z m495 -346 l7 -60 -125 -82 c-254 -167
-528 -277 -784 -317 -66 -10 -52 9 30 40 139 54 402 190 534 277 79 53 170
124 225 177 l93 89 7 -31 c4 -18 10 -59 13 -93z m-100 -276 c22 -86 27 -80
-123 -138 -204 -79 -458 -128 -770 -150 -189 -12 -352 -13 -352 -1 0 5 35 12
78 16 127 11 350 44 463 70 220 49 481 152 634 249 22 14 43 26 46 26 4 0 15
-32 24 -72z"/>
</g>
</svg>
